<svg id="Capa_1" data-name="Capa 1" xmlns="http://www.w3.org/2000/svg" viewBox="0 0 1000 256.83"><defs><style>.cls-1{fill:#007866;}</style></defs><title>bonova icono</title><path class="cls-1" d="M165.34,162c0,56.14-29.55,86.84-77.91,86.84-54,0-80.3-31.58-80.3-89.18V42.93a35,35,0,0,1,35-35h11V90.4c11.05-10.23,26-15.2,44.18-15.2C139.07,75.2,165.34,106.49,165.34,162Zm-46.27,0c0-30.12-9.85-44.74-33.13-44.74-24.48,0-32.84,14.92-32.84,36v6.43c.3,31.58,10.75,47.08,33.44,47.08C109.52,206.49,119.07,192.16,119.07,162Z"/><path class="cls-1" d="M178.24,162c0-55.55,27.76-86.84,80-86.84s80,31.29,80,86.84c0,55-27.77,86.84-80,86.84S178.24,217,178.24,162ZM292,162c0-30.12-9.56-44.74-33.74-44.74-23.88,0-33.43,14.62-33.43,44.74s9.55,44.74,33.43,44.74C282.42,206.78,292,192.16,292,162Z"/><path class="cls-1" d="M504.46,148v97.66h-46V148c0-18.42-10.15-30.71-27.76-30.71C412.82,117.3,403,129.59,403,148v97.66H357V148c0-47.08,25.38-72.81,73.74-72.81C478.79,75.2,504.46,100.93,504.46,148Z"/><path class="cls-1" d="M523.09,162c0-55.55,27.76-86.84,80-86.84s80,31.29,80,86.84c0,55-27.77,86.84-80,86.84S523.09,217,523.09,162Zm113.73,0c0-30.12-9.55-44.74-33.73-44.74-23.88,0-33.43,14.62-33.43,44.74s9.55,44.74,33.43,44.74C627.27,206.78,636.82,192.16,636.82,162Z"/><path class="cls-1" d="M817.85,78.12h29.52L794.24,245.67H734.53L682.29,78.12h29.27a24.32,24.32,0,0,1,23.53,18.19l28.7,110.18h2.09L794.3,96.36A24.33,24.33,0,0,1,817.85,78.12Z"/><path class="cls-1" d="M992.87,143v45c0,39.19-24.77,60.82-76.12,60.82-45.67,0-69.85-23.39-69.85-52.34S866.6,146,912.57,146H946.9v-6.73c0-15.79-8.06-21.93-23.88-21.93-11.49,0-19.77,3.44-25.95,10.22a17,17,0,0,1-20.33,3.56l-21.45-11.14a4.89,4.89,0,0,1-1.93-6.85C870,85.49,890.74,75.2,923.91,75.2,968.69,75.2,992.87,94.2,992.87,143Zm-46,45v-5.84H912.57c-12.84,0-19.7,3.8-19.7,13.45,0,6.43,5.37,12.57,27.46,12.57C935.26,208.24,946.9,203.85,946.9,188.06Z"/></svg>