<svg id="Capa_1" data-name="Capa 1" xmlns="http://www.w3.org/2000/svg" viewBox="0 0 780.75 176.8"><defs><style>.cls-1{fill:#007866;}</style></defs><title>bonova_ic</title><path class="cls-1" d="M125.33,63.46a25.8,25.8,0,0,0-25.79,25.8h0a25.8,25.8,0,0,0,51.59,0h0A25.8,25.8,0,0,0,125.33,63.46Zm10,28.52L122,99.54a3.13,3.13,0,0,1-4.67-2.72V93.59l9.63-4.33-9.63-4.33V81.7A3.13,3.13,0,0,1,122,79l13.34,7.56A3.13,3.13,0,0,1,135.29,92Z"/><path class="cls-1" d="M77.45,21.69c16,0,45.22,10.58,75.05,40.41,17.58,17.58,31.09,38.19,37.07,56.54,4.89,15,4.33,27.51-1.51,33.35-3.21,3.21-8.21,4.84-14.84,4.84-16,0-45.23-10.58-75-40.41C80.58,98.84,67.07,78.23,61.1,59.88c-4.9-15-4.33-27.51,1.51-33.35,3.21-3.21,8.2-4.84,14.84-4.84h0M77.45,8c-10,0-18.51,2.85-24.52,8.85C32.59,37.2,48.51,86.11,88.49,126.1c28.19,28.18,60.81,44.41,84.73,44.41,10,0,18.51-2.85,24.51-8.85,20.35-20.34,4.43-69.25-35.56-109.24C134,24.24,101.37,8,77.45,8Z"/><path class="cls-1" d="M173.22,21.69c6.63,0,11.63,1.63,14.84,4.84,5.84,5.84,6.4,18.31,1.51,33.35-6,18.35-19.49,39-37.07,56.54-29.83,29.83-59.07,40.41-75,40.41-6.64,0-11.63-1.63-14.84-4.84-5.84-5.84-6.41-18.31-1.51-33.35,6-18.35,19.48-39,37.07-56.54C128,32.27,157.24,21.69,173.22,21.69m0-13.68C149.3,8,116.68,24.24,88.49,52.42c-40,40-55.9,88.9-35.56,109.24,6,6,14.5,8.85,24.52,8.85,23.92,0,56.53-16.23,84.72-44.41,40-40,55.91-88.9,35.56-109.24-6-6-14.5-8.85-24.51-8.85Z"/><path class="cls-1" d="M341.84,103.8c0,27.49-14.47,42.52-38.14,42.52-26.46,0-39.32-15.46-39.32-43.66V45.48a17.13,17.13,0,0,1,17.13-17.13h5.38V68.73c5.41-5,12.71-7.45,21.63-7.45C329,61.28,341.84,76.6,341.84,103.8Zm-22.65,0c0-14.74-4.82-21.9-16.22-21.9-12,0-16.08,7.3-16.08,17.61v3.15c.14,15.46,5.26,23,16.37,23S319.19,118.55,319.19,103.8Z"/><path class="cls-1" d="M348.16,103.8c0-27.2,13.59-42.52,39.17-42.52S426.5,76.6,426.5,103.8c0,26.92-13.59,42.52-39.17,42.52S348.16,130.72,348.16,103.8Zm55.69,0c0-14.74-4.68-21.9-16.52-21.9-11.69,0-16.37,7.16-16.37,21.9s4.68,21.91,16.37,21.91C399.17,125.71,403.85,118.55,403.85,103.8Z"/><path class="cls-1" d="M507.88,96.93v47.82H485.37V96.93c0-9-5-15-13.59-15s-13.59,6-13.59,15v47.82H435.68V96.93c0-23.05,12.42-35.65,36.1-35.65S507.88,73.88,507.88,96.93Z"/><path class="cls-1" d="M517,103.8c0-27.2,13.6-42.52,39.17-42.52s39.18,15.32,39.18,42.52c0,26.92-13.6,42.52-39.18,42.52S517,130.72,517,103.8Zm55.69,0c0-14.74-4.68-21.9-16.52-21.9-11.69,0-16.37,7.16-16.37,21.9s4.68,21.91,16.37,21.91C568,125.71,572.69,118.55,572.69,103.8Z"/><path class="cls-1" d="M661.32,62.71h14.46l-26,82H620.53L595,62.71h14.33a11.9,11.9,0,0,1,11.52,8.91l14.05,53.94h1L649.8,71.64A11.9,11.9,0,0,1,661.32,62.71Z"/><path class="cls-1" d="M747,94.5v22c0,19.19-12.13,29.78-37.27,29.78-22.37,0-34.21-11.45-34.21-25.62s9.65-24.77,32.16-24.77h16.81V92.64c0-7.74-4-10.74-11.69-10.74-5.63,0-9.68,1.68-12.71,5a8.3,8.3,0,0,1-10,1.74l-10.51-5.45a2.4,2.4,0,0,1-.94-3.36c8.12-13.51,18.3-18.55,34.54-18.55C735.18,61.28,747,70.59,747,94.5Zm-22.51,22v-2.86H707.7c-6.28,0-9.65,1.86-9.65,6.59,0,3.15,2.63,6.15,13.45,6.15C718.81,126.42,724.51,124.27,724.51,116.54Z"/></svg>