<svg id="Capa_1" data-name="Capa 1" xmlns="http://www.w3.org/2000/svg" viewBox="0 0 502.49 131.18"><defs><style>.cls-1{fill:#007866;}</style></defs><title>bv_ic</title><path class="cls-1" d="M86.88,82.24c0,27.48-14.47,42.52-38.15,42.52-26.45,0-39.32-15.47-39.32-43.67V23.92A17.13,17.13,0,0,1,26.54,6.79h5.38V47.16c5.41-5,12.72-7.44,21.64-7.44C74,39.72,86.88,55,86.88,82.24Zm-22.66,0c0-14.75-4.82-21.91-16.22-21.91-12,0-16.08,7.3-16.08,17.61v3.15c.15,15.46,5.27,23,16.37,23C59.55,104,64.22,97,64.22,82.24Z"/><path class="cls-1" d="M93.19,82.24c0-27.21,13.6-42.52,39.18-42.52S171.54,55,171.54,82.24c0,26.91-13.6,42.52-39.17,42.52S93.19,109.15,93.19,82.24Zm55.69,0c0-14.75-4.68-21.91-16.51-21.91S116,67.49,116,82.24s4.67,21.9,16.37,21.9S148.88,97,148.88,82.24Z"/><path class="cls-1" d="M252.92,75.36v47.82H230.41V75.36c0-9-5-15-13.59-15s-13.6,6-13.6,15v47.82h-22.5V75.36c0-23,12.42-35.64,36.1-35.64C240.35,39.72,252.92,52.31,252.92,75.36Z"/><path class="cls-1" d="M262,82.24c0-27.21,13.59-42.52,39.17-42.52S340.38,55,340.38,82.24c0,26.91-13.59,42.52-39.17,42.52S262,109.15,262,82.24Zm55.69,0c0-14.75-4.68-21.91-16.52-21.91-11.69,0-16.37,7.16-16.37,21.91s4.68,21.9,16.37,21.9C313.05,104.14,317.73,97,317.73,82.24Z"/><path class="cls-1" d="M406.36,41.15h14.45l-26,82H365.57L340,41.15h14.33a11.91,11.91,0,0,1,11.52,8.9l14.05,54h1l13.92-53.92A11.91,11.91,0,0,1,406.36,41.15Z"/><path class="cls-1" d="M492.05,72.93V95c0,19.18-12.13,29.78-37.27,29.78-22.36,0-34.2-11.46-34.2-25.63s9.65-24.77,32.16-24.77h16.81V71.07c0-7.73-3.95-10.74-11.7-10.74-5.62,0-9.68,1.69-12.7,5a8.3,8.3,0,0,1-10,1.75l-10.5-5.46a2.39,2.39,0,0,1-.94-3.35c8.12-13.52,18.3-18.55,34.54-18.55C480.22,39.72,492.05,49,492.05,72.93Zm-22.5,22V92.11H452.74c-6.29,0-9.65,1.87-9.65,6.59,0,3.15,2.63,6.16,13.45,6.16C463.85,104.86,469.55,102.71,469.55,95Z"/></svg>