<svg id="Capa_1" data-name="Capa 1" xmlns="http://www.w3.org/2000/svg" viewBox="0 0 512 512"><title>manzana</title><path d="M214.18,504.12c-18.9,0-37.17-7.37-59.24-23.9-39.7-29.73-86.45-76.09-95.66-171.46C53.72,251.21,67,209,98.62,183.18c22.1-18,52.3-27.12,89.76-27.12a263.53,263.53,0,0,1,46.54,4.33C209.39,82.93,182.77,62.6,172.48,57.45a15.25,15.25,0,0,1,13.64-27.27c24.81,12.41,47.25,42.95,66.72,90.78,1.65-4.85,3.47-9.58,5.4-14.11,15.4-36,48.4-82.35,118.11-98.57a15,15,0,0,1,3.46-.4,15.29,15.29,0,0,1,14.31,10c.42,1.15,10.29,28.62,7.36,62.82-1.9,22.28-10.09,54.36-38.15,81.37,21.76,4.69,40.08,13.27,54.46,25.53,30.33,25.85,42.68,66.68,36.7,121.35-9.94,90.94-53.82,137.27-95.44,170.59C338.22,496.21,319.45,504,300,504h0c-8,0-15.28-1.22-22.29-2.4-9-1.51-14.61-2.28-20.5-2.28-5.37,0-11,.63-20.69,2.32C229.42,502.85,222.12,504.12,214.18,504.12ZM187.91,186.54c-34.91,0-60.92,9.16-77.33,27.22-17.9,19.71-25,50.69-21,92.07,8.07,83.49,48.91,124,83.59,150,16.85,12.61,28.77,17.76,41.16,17.75,5.46,0,10.74-.92,16.86-2,11.39-2,18.61-2.76,25.75-2.76s14.27.75,25.74,2.68c6.34,1.07,11.81,2,17.36,2,12.59,0,24.16-5.15,39.91-17.76,38.58-30.89,75.48-70.46,84.19-150.1,4.29-39.2-2.31-68.95-19.62-88.41-16.81-18.9-44.2-28.64-81.41-28.94l-1.09,0c-22.6.21-44.31,2.87-61.13,7.5a14.81,14.81,0,0,1-4,.54l-.76,0a50.65,50.65,0,0,1-6.67-1.45C238.66,192.17,216.07,186.54,187.91,186.54ZM369,42c-38.2,12.59-65.9,38.15-82.35,76a183.86,183.86,0,0,0-12.62,44,288.18,288.18,0,0,1,43.85-4c32.34-18.12,50.24-45,53.22-79.77A132.29,132.29,0,0,0,369,42Z"/><path d="M379.81,8.63a14.5,14.5,0,0,1,13.6,9.51c.42,1.14,10.24,28.43,7.33,62.49-2.08,24.3-11,55.59-39,81.88,19.87,4.1,39.39,11.92,55.52,25.66,30.14,25.68,42.4,66.29,36.45,120.7-9.92,90.67-53.67,136.86-95.17,170.08-24.34,19.49-42.86,24.28-58.63,24.28-8,0-15.22-1.22-22.16-2.39-8.88-1.5-14.67-2.29-20.63-2.29-5.79,0-11.74.75-20.82,2.33-7.1,1.24-14.28,2.49-22.16,2.49-15.39,0-33.45-4.77-58.79-23.75C115.81,450,69.2,403.76,60,308.69c-5.53-57.28,7.62-99.31,39.07-124.93,25.76-21,59.35-26.95,89.29-26.95A266.64,266.64,0,0,1,236,161.35C224.16,125.06,201.24,71,172.81,56.78a14.5,14.5,0,0,1,13-25.93c31.89,16,53.89,59.33,67.12,92.27,1.72-5.19,3.71-10.54,6-16,15.34-35.86,48.18-82,117.59-98.14a14.27,14.27,0,0,1,3.29-.38M273.14,162.84a285.36,285.36,0,0,1,44.95-4.22c32.67-18.26,50.76-45.31,53.76-80.46A132.23,132.23,0,0,0,369.58,41c-38.84,12.57-66.93,38.3-83.61,76.66a183.43,183.43,0,0,0-12.83,45.2M214.37,474.32c5.52,0,10.91-.93,17-2,10.53-1.84,18-2.75,25.62-2.75s15,.89,25.62,2.67c6.29,1.06,11.86,2,17.48,2,11.27,0,22.71-3.78,40.38-17.93,38.71-31,75.73-70.68,84.47-150.6,8.25-75.45-22.92-117.54-101.77-118.18-1,.09-33.51-.41-62.43,7.55a14.07,14.07,0,0,1-3.78.51l-.72,0c-4.18-.19-31.48-9.79-68.32-9.79-77.88,0-106.33,44.57-99,120.11C97,389.68,138,430.35,172.76,456.42c18.88,14.13,30.53,17.9,41.61,17.9M379.81,7.13a15.92,15.92,0,0,0-3.63.42c-70,16.29-103.16,62.83-118.63,99-1.69,4-3.29,8.07-4.77,12.28-19.37-46.95-41.67-77-66.33-89.33a16,16,0,1,0-14.31,28.61c12.4,6.2,24.91,20.8,37.17,43.39,11,20.25,19.28,42.26,24.5,57.92a263.45,263.45,0,0,0-45.43-4.12c-37.64,0-68,9.18-90.23,27.28C66.28,208.55,53,251,58.53,308.83c9.24,95.66,56.13,142.17,96,172,22.21,16.63,40.62,24.05,59.69,24.05,8,0,15.33-1.27,22.42-2.51,9.66-1.68,15.23-2.31,20.56-2.31,5.84,0,11.45.76,20.38,2.27,7,1.18,14.32,2.41,22.41,2.41,19.67,0,38.6-7.82,59.57-24.61,41.73-33.41,85.74-79.87,95.72-171.09,6-54.93-6.43-96-37-122-14.18-12.08-32.14-20.62-53.43-25.4,27.43-27,35.49-58.72,37.38-80.87,2.94-34.39-7-62-7.41-63.14a16,16,0,0,0-15-10.49ZM274.94,161a183.38,183.38,0,0,1,12.41-42.77c16.24-37.37,43.52-62.69,81.09-75.31A131.2,131.2,0,0,1,370.36,78c-2.95,34.48-20.67,61.09-52.67,79.08A289.75,289.75,0,0,0,274.94,161ZM214.37,472.82c-12.22,0-24-5.1-40.71-17.6C139.1,429.33,98.4,389,90.37,305.76c-4-41.16,3-71.94,20.77-91.49,16.25-17.9,42.08-27,76.77-27,28.06,0,50.6,5.62,61.43,8.32a49.87,49.87,0,0,0,6.82,1.47l.79,0a16,16,0,0,0,4.18-.56c16.76-4.62,38.4-7.27,60.94-7.48l1.13,0c37,.31,64.15,10,80.8,28.69,17.16,19.29,23.7,48.84,19.44,87.82-8.68,79.38-45.46,118.81-83.92,149.6-19.31,15.47-30.37,17.6-39.44,17.6-5.49,0-10.93-.92-17.22-2-11.53-1.94-18.79-2.69-25.88-2.69s-14.44.77-25.88,2.77c-6.08,1.06-11.33,2-16.73,2Z"/><path d="M216.35,351.57c-12.17,0-22.06-13.45-22.06-30s9.89-30,22.06-30,22.06,13.45,22.06,30S228.51,351.57,216.35,351.57Z"/><path d="M216.35,292.36c11.76,0,21.31,13.09,21.31,29.23s-9.55,29.23-21.31,29.23S195,337.74,195,321.59s9.54-29.23,21.31-29.23m0-1.5c-12.58,0-22.81,13.79-22.81,30.73s10.23,30.73,22.81,30.73,22.81-13.78,22.81-30.73-10.24-30.73-22.81-30.73Z"/><path d="M296.82,351.57c-12.16,0-22.06-13.45-22.06-30s9.9-30,22.06-30,22.06,13.45,22.06,30S309,351.57,296.82,351.57Z"/><path d="M296.82,292.36c11.77,0,21.31,13.09,21.31,29.23s-9.54,29.23-21.31,29.23-21.31-13.08-21.31-29.23,9.54-29.23,21.31-29.23m0-1.5c-12.58,0-22.81,13.79-22.81,30.73s10.23,30.73,22.81,30.73,22.81-13.78,22.81-30.73-10.23-30.73-22.81-30.73Z"/></svg>