<svg id="Capa_1" data-name="Capa 1" xmlns="http://www.w3.org/2000/svg" viewBox="0 0 1000 1000"><defs><style>.cls-1{fill:#007866;}.cls-2,.cls-7{fill:#0cf2d1;}.cls-2,.cls-3{opacity:0.9;}.cls-4{fill:#fff;}.cls-5{fill:none;opacity:0.83;}.cls-6{opacity:0.8;}</style></defs><title>Mesa de trabajo 1 copia 2</title><rect class="cls-1" x="76.72" y="87.67" width="824.55" height="824.55" rx="281.33" ry="281.33"/><rect class="cls-2" x="407.1" y="419.98" width="159.97" height="159.97" rx="79.98" ry="79.98"/><g class="cls-3"><path class="cls-4" d="M518,491.53,476.59,468.1a9.69,9.69,0,0,0-14.47,8.43V523.4a9.69,9.69,0,0,0,14.47,8.44L518,508.4A9.69,9.69,0,0,0,518,491.53Z"/></g><polygon class="cls-2" points="491.98 499.97 452.8 482.37 452.8 517.57 491.98 499.97"/><line class="cls-5" x1="106.4" y1="119.39" x2="867" y2="879.99"/><line class="cls-5" x1="867" y1="119.39" x2="106.4" y2="879.99"/><g class="cls-6"><path class="cls-7" d="M338.62,290.45c29.83,0,67.8,11.14,106.91,31.35,43.12,22.29,86.61,54.77,125.78,93.94a546.43,546.43,0,0,1,72.77,89.38c19,29.41,33.18,58.33,42.18,86,8.21,25.23,11.63,48.54,9.9,67.4-1.45,15.66-6.35,27.77-14.58,36-10,10-25.44,15-46,15-29.84,0-67.81-11.14-106.92-31.35C485.53,655.85,442,623.37,402.86,584.2a546.43,546.43,0,0,1-72.77-89.38c-19-29.41-33.18-58.33-42.18-86-8.21-25.22-11.63-48.53-9.9-67.39,1.45-15.66,6.35-27.77,14.58-36,10-10,25.44-15,46-15h0m0-42.42c-31.05,0-57.39,8.83-76,27.44-63.08,63.09-13.71,214.74,110.27,338.72,87.4,87.4,188.53,137.72,262.71,137.72,31,0,57.39-8.83,76-27.45,63.08-63.08,13.71-214.73-110.27-338.71C513.91,298.35,412.78,248,338.6,248Z"/></g><g class="cls-6"><path class="cls-7" d="M635.57,290.45c20.57,0,36,5.06,46,15,8.23,8.23,13.13,20.34,14.58,36,1.73,18.86-1.69,42.17-9.9,67.39-9,27.63-23.19,56.55-42.18,86a546.43,546.43,0,0,1-72.77,89.38c-39.17,39.17-82.67,71.65-125.79,93.94-39.11,20.21-77.08,31.35-106.92,31.35-20.57,0-36.05-5.06-46-15-8.23-8.23-13.13-20.34-14.58-36-1.73-18.86,1.69-42.17,9.9-67.4,9-27.62,23.19-56.54,42.18-86a546.43,546.43,0,0,1,72.77-89.38c39.17-39.17,82.67-71.65,125.79-93.94,39.11-20.21,77.08-31.35,106.92-31.35m0-42.42c-74.18,0-175.31,50.32-262.71,137.72-124,124-173.35,275.63-110.27,338.71,18.62,18.62,45,27.45,76,27.45,74.18,0,175.31-50.32,262.71-137.72,124-124,173.35-275.63,110.27-338.72-18.62-18.61-45-27.44-76-27.44Z"/></g></svg>