<svg id="Capa_1" data-name="Capa 1" xmlns="http://www.w3.org/2000/svg" viewBox="0 0 1000 1000"><defs><style>.cls-1{fill:#0cf2d1;}.cls-2,.cls-6{fill:#007866;}.cls-2,.cls-3{opacity:0.9;}.cls-4{fill:#fff;}.cls-5{fill:none;opacity:0.83;}</style></defs><title>Mesa de trabajo 1 copia 3</title><rect class="cls-1" x="116.7" y="105.27" width="789.37" height="789.37" rx="269.33" ry="269.33"/><rect class="cls-2" x="450.77" y="368.95" width="114.32" height="114.32" rx="57.16" ry="57.16"/><g class="cls-3"><path class="cls-4" d="M530,420.08l-29.56-16.74a6.92,6.92,0,0,0-10.34,6v33.5a6.93,6.93,0,0,0,10.34,6L530,432.14A6.93,6.93,0,0,0,530,420.08Z"/></g><polygon class="cls-2" points="511.43 426.11 483.43 413.53 483.43 438.69 511.43 426.11"/><line class="cls-5" x1="235.88" y1="154.13" x2="779.44" y2="697.69"/><line class="cls-5" x1="779.44" y1="154.13" x2="235.88" y2="697.69"/><g class="cls-3"><path class="cls-6" d="M401.83,276.38c21.32,0,48.45,8,76.41,22.41,30.81,15.92,61.89,39.14,89.88,67.13a389.81,389.81,0,0,1,52,63.87c13.57,21,23.71,41.69,30.14,61.43,5.87,18,8.31,34.68,7.07,48.16-1,11.19-4.53,19.85-10.41,25.73-7.12,7.12-18.19,10.73-32.89,10.73-21.32,0-48.45-8-76.41-22.4-30.81-15.93-61.9-39.14-89.89-67.14a390.26,390.26,0,0,1-52-63.87c-13.58-21-23.72-41.68-30.14-61.43-5.87-18-8.32-34.68-7.08-48.16,1-11.19,4.54-19.85,10.42-25.72,7.12-7.12,18.18-10.74,32.89-10.74h0m0-30.31c-22.19,0-41,6.3-54.32,19.61-45.08,45.08-9.8,153.46,78.8,242.06C488.76,570.2,561,606.15,614,606.15c22.2,0,41-6.3,54.32-19.61,45.09-45.08,9.81-153.45-78.8-242.06C527.1,282,454.83,246.06,401.82,246.07Z"/></g><g class="cls-3"><path class="cls-6" d="M614,276.38c14.7,0,25.77,3.61,32.89,10.74,5.88,5.88,9.38,14.53,10.41,25.72,1.24,13.48-1.2,30.13-7.07,48.16-6.43,19.75-16.57,40.41-30.14,61.43a389.81,389.81,0,0,1-52,63.87c-28,28-59.07,51.21-89.89,67.14-28,14.44-55.09,22.4-76.41,22.4-14.7,0-25.76-3.61-32.88-10.73-5.88-5.88-9.39-14.54-10.42-25.73-1.24-13.48,1.21-30.13,7.08-48.16,6.42-19.74,16.56-40.41,30.14-61.43a390.26,390.26,0,0,1,52-63.87c28-28,59.08-51.21,89.89-67.13,28-14.45,55.09-22.41,76.41-22.41m0-30.31c-53,0-125.28,36-187.74,98.41-88.6,88.61-123.88,197-78.8,242.06,13.3,13.31,32.13,19.61,54.32,19.61,53,0,125.28-35.95,187.74-98.41,88.61-88.6,123.89-197,78.8-242.06-13.3-13.31-32.12-19.61-54.32-19.61Z"/></g><path class="cls-6" d="M364,703.42c0,25.68-13.52,39.73-35.64,39.73-24.73,0-36.75-14.45-36.75-40.8V648.92a16,16,0,0,1,16-16h5v37.73c5.05-4.68,11.88-7,20.21-7C352,663.68,364,678,364,703.42Zm-21.17,0c0-13.78-4.5-20.47-15.16-20.47-11.2,0-15,6.82-15,16.45v3c.14,14.44,4.92,21.53,15.3,21.53S342.87,717.2,342.87,703.42Z"/><path class="cls-6" d="M369.94,703.42c0-25.42,12.71-39.74,36.61-39.74s36.6,14.32,36.6,39.74c0,25.15-12.7,39.73-36.6,39.73S369.94,728.57,369.94,703.42Zm52,0c0-13.78-4.37-20.47-15.43-20.47s-15.3,6.69-15.3,20.47,4.37,20.46,15.3,20.46S422,717.2,422,703.42Z"/><path class="cls-6" d="M519.2,697v44.69h-21V697c0-8.42-4.64-14-12.7-14s-12.71,5.62-12.71,14v44.69h-21V697c0-21.53,11.61-33.31,33.74-33.31S519.2,675.46,519.2,697Z"/><path class="cls-6" d="M527.73,703.42c0-25.42,12.7-39.74,36.6-39.74s36.6,14.32,36.6,39.74c0,25.15-12.7,39.73-36.6,39.73S527.73,728.57,527.73,703.42Zm52,0c0-13.78-4.37-20.47-15.43-20.47S549,689.64,549,703.42s4.37,20.46,15.3,20.46S579.76,717.2,579.76,703.42Z"/><path class="cls-6" d="M662.59,665H676.1l-24.31,76.66H624.47L600.57,665H614a11.12,11.12,0,0,1,10.76,8.32l13.13,50.41h1l13-50.39A11.11,11.11,0,0,1,662.59,665Z"/><path class="cls-6" d="M742.67,694.72v20.6c0,17.93-11.34,27.83-34.83,27.83-20.9,0-32-10.7-32-23.95s9-23.14,30-23.14h15.7V693c0-7.22-3.68-10-10.92-10-5.26,0-9.05,1.57-11.87,4.67a7.77,7.77,0,0,1-9.31,1.63l-9.81-5.1a2.23,2.23,0,0,1-.88-3.13c7.59-12.63,17.1-17.34,32.28-17.34C731.61,663.68,742.67,672.38,742.67,694.72Zm-21,20.6v-2.67h-15.7c-5.88,0-9,1.74-9,6.15,0,2.94,2.46,5.75,12.57,5.75C716.31,724.55,721.63,722.55,721.63,715.32Z"/></svg>