<svg id="Capa_1" data-name="Capa 1" xmlns="http://www.w3.org/2000/svg" viewBox="0 0 512 512"><title>sendd</title><path d="M495.4,14.94a22.86,22.86,0,0,0-23.89-1.66L19,249.59a22.91,22.91,0,0,0,3.23,42L176,344.09c0,.58-.08,1.17-.08,1.76V481.6a22.91,22.91,0,0,0,22.89,22.9h0a23.11,23.11,0,0,0,18.47-9.33L294.8,389.59a23.27,23.27,0,0,0,2.38-4.06l122.3,41.8a23.17,23.17,0,0,0,7.34,1.2A22.94,22.94,0,0,0,449.48,409L504.78,37A22.83,22.83,0,0,0,495.4,14.94ZM401,95.29,207.87,302.48a6.57,6.57,0,0,1-6.94,1.74L83.13,264a4.9,4.9,0,0,1-.61-9Zm52.26,11.14-43.95,263a4.91,4.91,0,0,1-6.42,3.83L262.06,325.12a6.57,6.57,0,0,1-2.68-10.71ZM221.66,359.72l30.57,10.44-37.15,66.11Z"/></svg>