<?xml version="1.0" encoding="utf-8"?>
<!-- Generator: Adobe Illustrator 22.0.1, SVG Export Plug-In . SVG Version: 6.00 Build 0)  -->
<svg version="1.1" id="Capa_1" xmlns="http://www.w3.org/2000/svg" xmlns:xlink="http://www.w3.org/1999/xlink" x="0px" y="0px"
	 viewBox="0 0 512 512" style="enable-background:new 0 0 512 512;" xml:space="preserve">
<g>
	<path d="M495.4,14.9c-7-5-16.1-5.6-23.9-1.7L19,249.6c-8.1,4.2-12.9,12.9-12.2,22.1c0.7,9.1,6.8,16.9,15.4,19.9l153.7,52.5
		c0,0.6-0.1,1.2-0.1,1.8v135.7c0,9.9,6.3,18.6,15.8,21.8c2.3,0.8,4.7,1.1,7.1,1.1h0c7.2,0,14.1-3.5,18.5-9.3l77.6-105.6
		c0.9-1.3,1.7-2.7,2.4-4.1l122.3,41.8c2.4,0.8,4.9,1.2,7.3,1.2c4.2,0,8.3-1.2,11.9-3.3c5.8-3.5,9.8-9.4,10.8-16.2l55.3-372.1
		C506,28.4,502.4,20,495.4,14.9z M401,95.3L207.9,302.5c-1.8,1.9-4.5,2.6-6.9,1.7L83.1,264c-4.1-1.4-4.5-7.1-0.6-9L401,95.3z
		 M453.3,106.4l-44,263c-0.5,3-3.6,4.8-6.4,3.8l-140.8-48.1c-4.5-1.5-5.9-7.2-2.7-10.7L453.3,106.4z M221.7,359.7l30.6,10.4
		l-37.1,66.1L221.7,359.7z"/>
</g>
</svg>
