<?xml version="1.0" encoding="utf-8"?>
<!-- Generator: Adobe Illustrator 22.0.1, SVG Export Plug-In . SVG Version: 6.00 Build 0)  -->
<svg version="1.1" id="Capa_1" xmlns="http://www.w3.org/2000/svg" xmlns:xlink="http://www.w3.org/1999/xlink" x="0px" y="0px"
	 viewBox="0 0 512 512" style="enable-background:new 0 0 512 512;" xml:space="preserve">
<style type="text/css">
	.st0{fill:#51CCAD;}
</style>
<path class="st0" d="M493.8,6.2l-483.5,272c-7.3,4.1-6.5,15,1.4,17.9l140.5,52.1c3.5,1.3,7.5,0.5,10.2-2.1l172-161.3
	c8.8-8.2,21.9,3.4,14.7,13.1L219.4,372.9l0.2,0.1l-0.2-0.1v116.6c0,9.2,11.4,13.4,17.4,6.4l71.4-83.3c2.7-3.1,7.1-4.3,10.9-2.8
	l100.6,37.3c5.8,2.1,12.1-1.5,13.2-7.5l75.5-423C509.8,8.3,501.1,2.1,493.8,6.2z"/>
</svg>
