<svg width="20" height="20" viewBox="0 0 20 20" fill="none" xmlns="http://www.w3.org/2000/svg">
<path d="M19.4697 12.7639L17.4595 9.99437L19.4697 7.22502C19.5366 7.12821 19.5514 7.02038 19.5143 6.90132C19.4843 6.78949 19.4099 6.71506 19.2909 6.6779L16.0303 5.6059V2.18872C16.0303 2.06966 15.9817 1.97286 15.8848 1.89846C15.7733 1.82407 15.6651 1.80913 15.5611 1.85376L12.3004 2.90339L10.2904 0.13404C10.2233 0.0447061 10.1266 0 9.99995 0C9.87346 0 9.77669 0.0448234 9.70965 0.13404L7.69948 2.90343L4.43872 1.8538C4.3346 1.80913 4.22657 1.82407 4.11486 1.8985C4.0181 1.97293 3.96971 2.0697 3.96971 2.18876V5.6059L0.708987 6.6779C0.589927 6.71518 0.515495 6.78961 0.48573 6.90132C0.448573 7.02038 0.463397 7.12825 0.530436 7.22502L2.54049 9.99437L0.530436 12.7639C0.463397 12.8531 0.448573 12.961 0.48573 13.0877C0.515456 13.199 0.589927 13.2736 0.708987 13.3111L3.96971 14.383V17.8001C3.96971 17.9191 4.0181 18.016 4.11486 18.0904C4.22657 18.1649 4.3346 18.1797 4.43872 18.1352L7.69948 17.0855L9.70965 19.8549C9.78405 19.9515 9.88085 20 9.99995 20C10.119 20 10.2159 19.9515 10.2903 19.8549L12.3004 17.0855L15.5613 18.1352C15.6653 18.1799 15.7733 18.1649 15.8848 18.0904C15.9817 18.016 16.0303 17.9191 16.0303 17.8001V14.383L19.2909 13.3111C19.4099 13.2737 19.4843 13.1992 19.5143 13.0877C19.5516 12.961 19.5366 12.8531 19.4697 12.7639ZM15.9243 12.4903C15.5855 13.2831 15.1277 13.968 14.5509 14.545C13.9738 15.1219 13.289 15.5798 12.4961 15.9186C11.7034 16.2572 10.8713 16.4267 10.0003 16.4267C9.12922 16.4267 8.2974 16.2572 7.50447 15.9186C6.71165 15.5797 6.0267 15.1219 5.44979 14.545C4.87287 13.968 4.41505 13.2831 4.07626 12.4903C3.73754 11.6974 3.56818 10.8655 3.56818 9.99437C3.56818 9.12332 3.73758 8.29151 4.07626 7.49857C4.4149 6.70575 4.87287 6.02085 5.44979 5.44381C6.02682 4.86694 6.71165 4.409 7.50447 4.07036C8.29729 3.73153 9.12922 3.56229 10.0003 3.56229C10.8712 3.56229 11.7034 3.73153 12.4961 4.07036C13.289 4.409 13.9738 4.86694 14.5509 5.44381C15.1277 6.02085 15.5855 6.70575 15.9243 7.49857C16.2629 8.29151 16.4324 9.12344 16.4324 9.99437C16.4324 10.8655 16.2628 11.6973 15.9243 12.4903Z" fill="#00BF76"/>
<circle cx="10.4167" cy="10.4167" r="0.416667" fill="#C4C4C4"/>
<circle cx="10" cy="10" r="5" fill="#00BF76"/>
</svg>
